<?xml version="1.0" standalone="no"?>
<!DOCTYPE svg PUBLIC "-//W3C//DTD SVG 20010904//EN"
 "http://www.w3.org/TR/2001/REC-SVG-20010904/DTD/svg10.dtd">
<svg version="1.0" xmlns="http://www.w3.org/2000/svg"
 width="300.000000pt" height="359.000000pt" viewBox="0 0 300.000000 359.000000"
 preserveAspectRatio="xMidYMid meet">
<metadata>
Created by potrace 1.10, written by Peter Selinger 2001-2011
</metadata>
<g transform="translate(0.000000,359.000000) scale(0.100000,-0.100000)"
fill="#000000" stroke="none">
<path d="M1477 3552 c-10 -2 -27 -24 -37 -48 -11 -24 -23 -44 -27 -44 -4 0
-17 17 -28 37 -37 69 -110 63 -122 -10 -8 -53 -28 -57 -67 -14 -18 20 -39 35
-47 33 -46 -8 -59 -18 -65 -54 -13 -79 -23 -84 -72 -35 -49 49 -102 15 -102
-65 0 -57 -20 -72 -55 -41 -35 31 -68 33 -93 6 -24 -25 -27 -44 -17 -87 10
-43 -7 -54 -47 -30 -37 21 -59 19 -87 -9 -22 -22 -26 -68 -7 -87 25 -24 4 -56
-32 -48 -15 3 -36 7 -48 9 -13 3 -28 -3 -39 -15 -10 -11 -15 -20 -10 -20 4 0
3 -6 -3 -13 -9 -10 -6 -24 9 -55 26 -51 14 -77 -27 -62 -35 14 -70 -3 -83 -41
-6 -17 -11 -33 -11 -35 0 -2 13 -19 30 -37 35 -40 28 -53 -36 -63 -47 -7 -50
-10 -57 -52 -6 -27 -2 -37 23 -60 40 -38 37 -72 -6 -72 -37 0 -64 -26 -64 -62
0 -25 34 -71 61 -80 11 -4 12 -9 2 -24 -6 -11 -16 -18 -22 -16 -6 1 -11 -2
-11 -7 0 -5 -9 -12 -19 -16 -13 -4 -20 -17 -23 -41 -4 -31 0 -39 27 -60 18
-13 37 -24 43 -24 7 0 12 -7 12 -15 0 -8 -8 -15 -18 -15 -26 0 -52 -31 -52
-62 0 -40 10 -58 32 -58 11 0 16 -4 12 -11 -3 -6 1 -10 12 -9 53 6 61 -25 14
-52 -23 -13 -30 -24 -30 -48 0 -40 39 -81 69 -73 20 5 51 -11 51 -27 0 -4 -11
-19 -25 -34 -50 -54 -18 -120 53 -110 50 7 59 -12 32 -67 -23 -43 -17 -66 21
-92 16 -12 29 -13 55 -5 53 14 66 -1 46 -55 -15 -41 -14 -45 4 -69 29 -40 81
-41 106 -4 12 18 42 -19 33 -41 -20 -45 -16 -68 14 -90 32 -24 63 -23 91 2 30
27 50 9 50 -45 0 -26 6 -52 13 -58 11 -10 54 -17 70 -12 4 1 11 3 17 4 5 0 15
9 23 20 10 13 20 16 36 11 16 -5 19 -10 12 -19 -11 -14 11 -74 33 -88 22 -15
54 -7 82 22 37 38 72 40 72 4 0 -40 22 -72 55 -80 27 -6 35 -2 66 35 20 23 41
41 47 41 6 0 16 -18 23 -40 9 -29 18 -41 37 -46 36 -9 73 11 86 46 12 37 45
41 53 7 7 -27 56 -51 86 -42 13 4 29 26 41 55 22 54 36 56 75 9 20 -24 27 -26
59 -19 44 10 54 23 54 72 0 20 4 39 9 42 8 6 63 -31 69 -46 6 -13 31 -9 60 9
38 24 43 34 37 68 -2 17 -1 37 5 45 8 12 15 11 49 -8 36 -21 44 -22 67 -10 42
20 50 41 35 83 -7 20 -10 39 -7 42 9 9 50 11 56 3 3 -4 19 -10 35 -13 27 -5
34 -1 54 29 24 34 24 36 7 71 -16 33 -16 37 -1 52 13 13 17 14 24 2 5 -8 16
-11 26 -8 9 4 14 3 10 -3 -14 -23 28 -8 50 18 30 33 31 65 6 101 -16 22 -17
29 -6 44 8 12 15 14 20 8 12 -20 66 -12 86 12 25 30 24 56 -7 101 -21 31 -24
40 -13 47 8 5 24 7 37 4 12 -3 22 -1 22 5 0 5 7 10 15 10 39 0 46 80 10 108
-26 21 -34 61 -12 63 21 1 61 9 65 13 2 3 7 21 12 41 9 39 1 52 -48 87 -24 16
-22 42 4 52 9 3 12 1 9 -4 -11 -18 4 -10 30 15 37 38 34 84 -6 114 -18 13 -28
18 -24 12 5 -9 1 -9 -14 1 -20 12 -20 14 -5 23 55 34 65 47 58 79 -7 36 -33
65 -53 58 -8 -3 -11 0 -7 7 5 7 1 9 -8 5 -31 -12 -28 24 3 55 34 33 37 47 20
85 -11 24 -49 42 -78 37 -24 -4 -31 22 -13 51 9 15 20 28 24 28 19 0 6 54 -18
77 -21 19 -32 22 -60 17 -44 -8 -52 11 -24 59 22 37 22 37 3 69 -18 31 -23 33
-75 33 -31 0 -59 3 -63 7 -3 3 1 20 9 37 20 39 20 56 -1 82 -22 25 -60 48 -48
28 6 -8 3 -11 -11 -7 -11 3 -25 -1 -32 -9 -10 -10 -18 -11 -33 -2 -20 10 -21
20 -4 79 3 9 -7 28 -21 43 -20 22 -30 26 -52 20 -15 -3 -32 -13 -38 -21 -5 -7
-21 -12 -35 -10 -22 3 -24 7 -21 46 4 44 -20 88 -39 76 -5 -3 -9 0 -9 5 0 19
-21 12 -60 -19 -33 -26 -39 -28 -50 -15 -7 9 -13 29 -12 45 1 31 -15 51 -22
28 -2 -7 -7 -29 -9 -49 -5 -34 -3 -37 38 -57 42 -20 44 -20 50 -3 3 10 14 26
25 36 18 16 23 17 45 5 28 -15 31 -33 12 -70 -13 -24 -11 -27 30 -52 41 -26
43 -26 53 -8 17 31 46 43 70 28 24 -15 26 -40 4 -74 -9 -13 -15 -26 -13 -27 2
-1 18 -15 36 -31 l32 -28 27 21 c33 26 46 26 68 3 15 -18 15 -21 -7 -53 l-24
-34 29 -37 c28 -36 31 -37 51 -23 51 36 104 0 72 -49 -9 -13 -23 -27 -31 -30
-12 -5 -10 -13 12 -46 20 -29 32 -39 43 -34 43 18 67 16 78 -8 12 -27 2 -47
-34 -66 -21 -12 -22 -13 -6 -56 16 -43 16 -43 59 -38 39 4 45 2 53 -19 8 -20
5 -28 -15 -46 -14 -13 -32 -23 -40 -23 -10 0 -14 -6 -10 -17 2 -10 7 -32 11
-49 5 -25 10 -31 25 -27 35 9 67 -5 73 -32 3 -21 -1 -29 -24 -40 -15 -8 -36
-15 -45 -15 -12 0 -15 -6 -10 -22 3 -13 6 -31 6 -40 0 -12 8 -18 24 -18 41 0
56 -11 56 -40 0 -29 -15 -40 -55 -40 -17 0 -24 -7 -29 -31 -10 -49 -7 -69 9
-69 35 0 65 -23 65 -51 0 -32 -30 -46 -75 -35 -22 6 -25 3 -25 -18 0 -14 -4
-36 -10 -50 -7 -20 -6 -26 5 -26 7 0 25 -10 39 -22 20 -17 24 -29 20 -47 -6
-21 -11 -23 -53 -19 -46 5 -47 4 -64 -36 l-17 -40 35 -28 c31 -26 33 -31 23
-54 -12 -26 -26 -28 -83 -10 -16 5 -25 -1 -41 -31 l-22 -38 29 -33 c25 -28 27
-35 17 -52 -15 -24 -45 -26 -77 -4 -12 9 -26 12 -29 8 -4 -5 -18 -21 -31 -36
l-23 -27 21 -27 c26 -33 26 -46 2 -68 -20 -19 -31 -16 -66 15 -19 17 -21 16
-60 -16 -38 -32 -39 -34 -22 -53 20 -22 22 -53 5 -70 -18 -18 -36 -15 -65 14
l-25 26 -43 -23 c-41 -22 -42 -23 -29 -48 20 -38 17 -60 -11 -73 -21 -9 -28
-8 -45 7 -11 10 -22 26 -25 36 -6 17 -7 17 -46 0 -21 -10 -41 -20 -43 -22 -2
-2 -1 -24 3 -49 l7 -45 -33 -2 c-30 -1 -36 3 -50 33 -17 34 -24 37 -77 25 -27
-5 -30 -10 -30 -45 -2 -71 -60 -76 -81 -7 -9 30 -12 32 -50 29 -32 -2 -40 -7
-41 -23 -2 -46 -15 -65 -44 -65 -30 0 -40 15 -40 61 0 28 -1 29 -50 29 -37 0
-50 -4 -50 -15 0 -8 -5 -26 -12 -40 -23 -50 -84 -17 -75 41 5 29 3 32 -26 37
-18 3 -40 8 -49 12 -13 5 -18 2 -18 -8 0 -9 -10 -27 -22 -41 -19 -20 -27 -23
-47 -15 -21 8 -23 14 -19 53 5 43 5 44 -38 63 -41 19 -44 19 -49 3 -3 -10 -14
-25 -25 -35 -17 -15 -24 -16 -45 -7 -28 13 -31 34 -12 72 12 24 10 26 -27 50
l-40 26 -27 -30 c-24 -27 -29 -29 -53 -18 -31 14 -33 40 -7 73 l19 25 -41 34
c-26 22 -42 30 -45 22 -2 -7 -17 -19 -34 -28 -29 -15 -32 -15 -50 4 -19 18
-19 21 -4 50 9 17 21 34 26 37 6 4 -2 22 -21 46 -28 36 -33 38 -48 25 -29 -26
-65 -29 -79 -6 -14 24 -4 50 29 73 l21 15 -27 41 c-23 33 -30 39 -45 31 -31
-17 -68 -12 -81 11 -9 17 -7 25 12 45 12 13 29 24 37 24 7 0 11 6 8 13 -2 6
-10 29 -17 49 -11 34 -14 36 -37 27 -36 -14 -68 -4 -75 23 -8 28 -1 37 40 55
26 10 33 18 28 31 -3 9 -9 30 -12 45 -4 21 -11 28 -27 26 -51 -4 -64 1 -70 27
-8 32 15 53 58 54 21 0 27 4 22 16 -3 9 -6 29 -6 45 0 21 -4 27 -15 23 -9 -4
-29 -1 -45 6 -56 23 -31 80 34 80 23 0 26 4 26 34 0 19 3 41 6 50 5 12 0 16
-18 16 -37 0 -66 25 -61 54 5 26 41 41 73 31 14 -4 20 3 29 39 14 56 14 56 -3
56 -8 0 -24 8 -36 18 -18 15 -22 25 -16 46 6 26 10 28 52 24 44 -3 45 -2 64
39 18 40 18 42 1 48 -10 3 -26 14 -36 25 -15 17 -16 24 -7 45 13 28 35 31 71
11 24 -13 26 -12 51 27 l25 40 -27 28 c-32 31 -33 37 -13 64 13 16 19 18 43 8
15 -6 34 -13 42 -16 9 -3 26 8 44 29 26 31 27 36 13 47 -9 7 -21 24 -26 39 -8
21 -6 29 9 43 17 15 21 15 48 1 17 -9 34 -20 37 -26 4 -6 23 3 46 22 34 28 37
33 25 47 -8 9 -17 27 -21 41 -5 21 -1 29 20 40 26 14 29 13 56 -17 l28 -32 40
26 c33 21 38 29 31 44 -17 30 -12 67 11 80 17 9 25 7 45 -12 13 -12 24 -29 24
-37 0 -7 6 -11 13 -8 6 2 29 10 50 17 28 9 36 16 31 28 -21 51 -13 79 26 83
18 2 29 -5 44 -32 20 -35 22 -35 62 -27 40 9 41 11 40 47 -1 45 0 46 37 55 24
6 29 3 41 -26 8 -19 12 -37 10 -41 -3 -5 18 -8 46 -8 42 0 51 3 46 15 -10 27
14 75 38 75 31 0 46 -19 46 -56 0 -31 1 -32 50 -36 45 -3 50 -1 50 17 0 11 7
30 15 42 10 15 12 24 4 28 -15 10 -44 -30 -41 -56 1 -4 -8 -5 -18 -2 -11 3
-27 21 -36 39 -22 47 -47 58 -97 46z"/>
<path d="M1670 3541 c0 -13 24 -31 41 -31 21 0 33 -32 25 -65 -5 -20 -1 -24
40 -34 26 -7 47 -11 48 -9 22 52 34 63 66 63 39 0 51 20 18 29 -38 10 -47 7
-75 -24 -32 -36 -63 -40 -63 -7 0 32 -41 79 -73 82 -15 2 -27 0 -27 -4z"/>
<path d="M1430 3350 c0 -27 5 -50 10 -50 6 0 10 14 10 31 0 38 24 35 28 -4 2
-15 7 -27 11 -27 5 0 5 15 2 33 -6 25 -12 32 -29 31 -17 0 -21 4 -16 18 3 10
1 18 -5 18 -6 0 -11 -21 -11 -50z"/>
<path d="M1544 3376 c-13 -13 -6 -62 12 -77 12 -9 13 -6 8 21 -4 18 -3 35 3
39 7 4 7 10 -1 17 -8 7 -15 7 -22 0z"/>
<path d="M1685 3370 c3 -5 8 -10 11 -10 2 0 4 5 4 10 0 6 -5 10 -11 10 -5 0
-7 -4 -4 -10z"/>
<path d="M1324 3346 c-11 -29 1 -51 28 -51 31 1 27 -22 -5 -28 -18 -4 -17 -5
5 -6 34 -1 40 9 32 58 -6 35 -10 41 -31 41 -13 0 -26 -6 -29 -14z m44 -24 c2
-14 -2 -22 -12 -22 -19 0 -29 17 -22 36 8 22 30 12 34 -14z"/>
<path d="M1680 3338 c0 -7 -3 -23 -6 -35 -4 -13 -2 -23 4 -23 5 0 12 16 14 35
2 19 0 35 -4 35 -4 0 -8 -6 -8 -12z"/>
<path d="M1150 3338 c0 -2 6 -23 14 -48 11 -35 18 -44 32 -42 30 6 43 24 14
20 -22 -3 -26 2 -34 35 -5 20 -13 37 -18 37 -4 0 -8 -1 -8 -2z"/>
<path d="M1260 3309 c11 -36 20 -49 20 -28 0 25 -12 59 -20 59 -5 0 -5 -14 0
-31z"/>
<path d="M1744 3329 c-3 -6 -1 -16 5 -22 16 -16 14 -30 -4 -23 -8 3 -15 1 -15
-4 0 -13 37 -13 45 1 4 5 -1 20 -12 31 -16 20 -17 21 0 15 9 -4 17 -2 17 3 0
14 -27 13 -36 -1z"/>
<path d="M1895 3296 c-30 -30 -31 -37 -6 -67 16 -20 22 -22 45 -11 26 11 43
52 31 71 -3 6 -15 16 -26 21 -15 9 -24 6 -44 -14z m50 -31 c0 -25 -4 -30 -25
-30 -28 0 -39 27 -19 51 20 24 44 13 44 -21z"/>
<path d="M1031 3261 c-20 -13 -6 -41 21 -41 23 -1 23 -1 3 -16 -20 -16 -20
-16 0 -12 29 5 26 42 -3 46 -22 3 -23 4 -5 17 20 16 7 20 -16 6z"/>
<path d="M950 3255 c0 -15 18 -40 24 -34 3 3 -1 14 -9 25 -8 10 -14 15 -15 9z"/>
<path d="M1306 3224 c-368 -82 -650 -365 -732 -737 -23 -99 -22 -289 0 -392
62 -286 256 -531 521 -661 149 -72 222 -88 415 -88 150 0 173 3 253 27 405
124 674 465 694 877 21 440 -266 836 -697 961 -100 29 -351 36 -454 13z m434
-24 c213 -55 408 -189 531 -364 l48 -68 -227 -131 c-125 -71 -308 -177 -406
-234 l-179 -103 -401 231 c-221 127 -403 233 -405 235 -2 2 13 30 34 61 55 85
189 211 283 267 86 51 238 109 332 125 92 16 293 7 390 -19z m-641 -681 l401
-231 0 -470 0 -469 -72 7 c-233 22 -417 110 -583 278 -133 134 -202 254 -253
438 -26 95 -23 356 5 458 23 83 81 220 94 220 4 0 188 -104 408 -231z m1262
164 c117 -260 110 -563 -19 -818 -143 -285 -430 -477 -764 -511 l-68 -6 0 469
0 469 403 232 c221 127 406 232 410 232 4 0 21 -30 38 -67z"/>
<path d="M1451 3117 c-13 -15 -19 -30 -15 -40 4 -12 1 -17 -11 -17 -12 0 -15
5 -11 17 4 10 4 14 0 10 -4 -4 -8 -27 -9 -52 -1 -49 -8 -63 -27 -47 -7 5 -39
18 -71 27 -53 15 -60 15 -82 1 -14 -9 -25 -24 -25 -34 1 -29 35 -95 78 -147
40 -47 41 -50 24 -68 -9 -11 -27 -23 -39 -28 -13 -5 -23 -15 -23 -23 0 -8 -12
-37 -27 -65 -22 -43 -24 -55 -15 -76 10 -21 19 -25 52 -25 22 0 63 9 92 20 28
11 52 19 53 17 1 -1 9 -28 19 -60 23 -77 54 -112 89 -103 30 7 61 59 72 119 4
20 11 37 15 37 4 0 27 -9 51 -20 44 -20 94 -25 123 -14 22 9 20 57 -4 104 -11
22 -19 45 -18 51 2 7 -7 18 -19 24 -13 7 -32 20 -43 30 -19 17 -19 18 26 68
123 137 107 228 -33 180 -32 -11 -64 -22 -71 -24 -10 -3 -19 13 -28 50 -27
103 -76 138 -123 88z m82 -24 c10 -18 25 -55 32 -81 l12 -48 -42 -23 -42 -22
-41 27 c-36 23 -41 31 -36 53 4 14 15 33 26 42 14 11 18 22 14 36 -8 24 18 56
42 51 9 -2 24 -18 35 -35z m-189 -104 c42 -16 55 -26 52 -38 -3 -9 -7 -39 -11
-68 -4 -34 -14 -58 -29 -72 l-22 -21 -35 43 c-48 57 -68 89 -78 125 -17 56 27
67 123 31z m433 -5 c9 -24 -25 -88 -78 -146 l-47 -53 -25 25 c-21 20 -26 37
-29 89 l-3 63 45 19 c57 23 128 25 137 3z m-298 -74 c0 -3 -18 -17 -39 -32
l-40 -28 0 33 c0 17 3 42 6 54 l6 22 34 -22 c19 -12 34 -24 33 -27z m106 -14
l7 -48 -41 28 c-22 16 -41 32 -41 35 0 5 63 39 66 35 1 0 5 -23 9 -50z m-39
-32 c41 -34 44 -40 44 -84 0 -46 -2 -49 -51 -84 l-50 -37 -49 41 c-45 38 -48
43 -47 86 2 41 6 48 47 79 25 18 49 34 53 34 5 1 29 -15 53 -35z m-166 -86 c0
-30 0 -31 -20 -13 -11 10 -20 13 -20 7 0 -6 8 -15 18 -21 11 -6 21 -31 28 -76
l11 -67 -46 -21 c-25 -11 -66 -21 -91 -21 -42 -1 -45 1 -48 27 -4 33 31 93 58
100 12 3 20 14 20 25 0 17 70 92 85 92 3 0 5 -14 5 -32z m250 17 c10 -12 10
-18 0 -30 -19 -23 -30 -18 -30 15 0 33 11 38 30 15z m75 -75 c8 0 17 -5 21
-12 5 -8 0 -9 -14 -6 -12 4 -22 2 -22 -4 0 -5 9 -12 20 -15 23 -6 60 -70 60
-102 0 -38 -66 -38 -142 0 l-36 18 5 63 c4 52 10 67 32 85 l26 23 18 -25 c10
-14 25 -25 32 -25z m-435 0 c0 -5 -4 -10 -10 -10 -5 0 -10 5 -10 10 0 6 5 10
10 10 6 0 10 -4 10 -10z m183 -48 l28 -21 -32 -16 c-38 -20 -49 -10 -49 44 0
25 3 31 13 24 6 -5 25 -19 40 -31z m131 -9 c-3 -27 -8 -50 -10 -52 -2 -2 -19
7 -39 19 l-35 22 37 28 c21 16 42 29 46 29 5 1 5 -20 1 -46z m-54 -45 c46 -26
48 -37 19 -113 -35 -93 -80 -93 -113 -1 -30 83 -29 92 7 114 41 26 41 26 87 0z"/>
<path d="M977 2350 c-149 -38 -243 -163 -235 -315 17 -322 480 -401 616 -106
53 114 24 263 -65 342 -80 69 -217 104 -316 79z m143 -20 c-18 -12 -88 -12
-115 0 -14 6 4 9 55 9 52 1 70 -2 60 -9z m-109 -15 c41 -14 44 -18 44 -50 0
-19 -3 -35 -6 -35 -3 0 -31 5 -62 11 l-57 12 25 33 c14 19 22 34 16 34 -5 0
-19 -13 -31 -30 -17 -24 -25 -28 -40 -20 -30 16 -37 11 -13 -8 21 -16 22 -20
11 -57 -6 -22 -12 -41 -13 -42 -3 -5 -95 29 -95 34 0 17 62 80 104 104 59 34
59 34 117 14z m200 -6 c23 -11 39 -22 37 -23 -29 -26 -45 -23 -71 10 -32 39
-23 43 34 13z m-49 -16 c35 -34 35 -40 -2 -47 -16 -3 -44 -9 -61 -12 -30 -6
-30 -5 -27 32 3 37 8 42 57 53 3 1 18 -11 33 -26z m168 -92 c0 -7 -69 -41 -84
-41 -2 0 -11 20 -19 45 l-16 45 27 15 c26 14 28 13 60 -20 17 -19 32 -39 32
-44z m-320 23 l45 -6 -1 -42 c-2 -45 5 -43 -96 -31 -32 3 -58 9 -58 12 0 3 5
23 12 45 10 33 15 38 32 33 12 -3 41 -8 66 -11z m199 -6 c25 -68 26 -65 -31
-73 -29 -3 -65 -8 -80 -11 -27 -5 -28 -4 -28 40 0 45 1 46 33 47 17 1 43 5 57
9 38 12 40 12 49 -12z m-366 -59 c36 -13 37 -15 35 -56 l-3 -43 -63 0 -63 0 7
38 c10 57 23 84 37 79 6 -2 29 -10 50 -18z m515 -18 c23 -75 20 -81 -48 -81
-60 0 -60 0 -60 29 0 16 -2 35 -5 43 -4 9 9 19 37 30 62 23 64 22 76 -21z
m-353 -18 c47 -5 50 -7 50 -34 l0 -29 -82 0 -83 0 0 41 0 42 33 -7 c17 -4 55
-10 82 -13z m225 0 c0 -10 3 -28 6 -40 6 -23 5 -23 -80 -23 l-86 0 0 28 c0 28
2 29 68 39 37 5 73 11 80 11 6 1 12 -6 12 -15z m-358 -98 c16 -51 9 -70 -29
-84 -21 -8 -44 -16 -50 -18 -14 -6 -27 23 -37 82 l-7 41 58 -1 c49 0 59 -3 65
-20z m183 -13 c2 -29 1 -30 -57 -36 -32 -3 -70 -9 -83 -12 -24 -6 -25 -4 -25
37 l0 44 81 -2 82 -2 2 -29z m179 -7 c-3 -22 -7 -41 -9 -43 -1 -1 -22 2 -46 7
-24 6 -59 11 -76 11 -30 0 -33 3 -33 33 l0 32 85 0 86 0 -7 -40z m136 14 c0
-22 -17 -86 -26 -97 -1 -2 -25 5 -54 15 -42 15 -50 21 -46 38 3 11 6 31 6 45
0 24 3 25 60 25 58 0 60 -1 60 -26z m-314 -93 l1 -44 -46 -5 c-25 -3 -55 -8
-67 -12 -17 -5 -22 0 -33 35 -7 23 -10 44 -8 46 4 4 39 10 142 23 6 0 10 -19
11 -43z m117 29 c51 -7 54 -12 36 -64 -8 -24 -16 -31 -28 -26 -9 4 -37 9 -63
12 l-48 6 0 44 c0 43 1 44 28 39 15 -2 48 -8 75 -11z m-283 -30 c0 -9 6 -28
14 -43 14 -26 13 -28 -14 -44 -29 -16 -29 -16 -65 24 -20 22 -35 42 -33 44 5
5 80 32 91 33 4 1 7 -6 7 -14z m400 -1 c22 -9 40 -19 40 -23 0 -3 -14 -23 -31
-44 -30 -36 -31 -37 -60 -22 -33 17 -32 16 -20 47 5 13 12 31 15 41 7 21 6 21
56 1z m-233 -89 c-1 -28 -6 -36 -29 -44 -35 -12 -47 -8 -71 25 -22 29 -20 34
25 44 68 16 76 13 75 -25z m116 16 c18 -7 17 -10 -8 -39 -15 -18 -23 -32 -18
-32 4 0 20 14 34 31 25 31 27 32 49 16 l24 -16 -47 -21 c-43 -19 -50 -20 -89
-6 -39 13 -43 17 -46 51 l-3 37 43 -7 c24 -4 51 -11 61 -14z m-218 -48 c29
-36 29 -36 5 -28 -14 4 -38 14 -54 23 -28 14 -29 15 -11 28 25 18 25 18 60
-23z m165 -33 c10 -7 -5 -10 -53 -10 -43 0 -66 4 -62 10 8 13 95 13 115 0z"/>
<path d="M2292 2433 c-6 -2 -10 -8 -7 -13 7 -11 -40 -134 -71 -187 -28 -48
-56 -67 -84 -58 -28 9 -68 60 -81 105 -7 22 -17 40 -23 40 -13 0 -45 -20 -33
-20 10 0 -48 -113 -68 -134 -33 -32 -89 -8 -108 46 -6 17 -37 15 -37 -3 0 -4
-14 -24 -31 -44 -34 -38 -71 -46 -99 -20 -15 14 -20 13 -43 -5 -14 -11 -35
-20 -46 -20 -42 0 -19 -16 47 -33 38 -10 85 -29 106 -43 21 -14 58 -35 84 -46
43 -20 52 -20 142 -8 90 12 99 11 141 -7 32 -14 60 -39 93 -81 54 -71 103
-109 118 -94 6 6 6 12 -3 17 -8 5 -10 4 -5 -3 5 -8 1 -10 -9 -5 -12 4 -13 8
-5 13 11 7 -10 22 -35 24 -5 1 -10 8 -10 16 -1 8 -6 14 -13 13 -6 -2 -9 4 -5
12 4 12 8 13 20 4 7 -7 12 -18 9 -26 -3 -8 -1 -11 5 -8 5 4 18 1 27 -7 9 -7
-1 7 -23 32 -22 25 -53 62 -69 82 -36 48 -84 78 -125 78 -26 0 -31 4 -31 25
l0 25 133 0 133 0 -1 -132 c0 -96 3 -132 13 -135 9 -4 12 27 12 132 l0 137 50
-4 c28 -1 50 0 50 5 0 4 -22 7 -50 7 -27 0 -50 5 -50 10 0 6 23 10 50 10 47 0
63 11 39 26 -6 3 -22 29 -35 57 l-23 51 -4 -60 c-4 -58 -4 -58 -4 11 0 111 -6
118 -13 15 -6 -89 -6 -86 -7 49 l0 144 18 -71 c18 -71 51 -146 69 -157 16 -10
12 5 -9 31 -17 21 -51 119 -66 187 -5 27 -9 30 -33 20z m0 -170 c-2 -68 -8
-123 -13 -123 -13 0 -11 178 3 217 6 18 12 31 13 30 0 -1 -1 -57 -3 -124z
m-206 -69 c26 -28 39 -35 59 -32 19 4 23 2 15 -7 -11 -13 -70 -26 -67 -16 1 3
-13 25 -30 49 l-32 43 -3 -53 c-2 -29 -4 -10 -5 42 l0 95 14 -43 c8 -23 30
-59 49 -78z m171 -16 c-2 -24 -4 -7 -4 37 0 44 2 63 4 43 2 -21 2 -57 0 -80z
m-255 22 c-4 -80 -22 -96 -22 -19 0 41 12 89 23 89 1 0 1 -31 -1 -70z m235
-32 c-2 -18 -4 -6 -4 27 0 33 2 48 4 33 2 -15 2 -42 0 -60z m-365 -27 l33 -9
-32 -1 c-33 -1 -73 36 -73 68 0 9 8 3 20 -16 12 -20 32 -36 52 -42z m497 17
c1 -10 -3 -18 -9 -18 -5 0 -10 17 -9 38 0 30 2 33 9 17 5 -11 9 -28 9 -37z
m-402 -10 c-2 -13 -4 -5 -4 17 -1 22 1 32 4 23 2 -10 2 -28 0 -40z m245 20
c-4 -28 -6 -30 -12 -13 -4 11 -3 26 2 33 15 17 15 16 10 -20z m-422 -13 c0
-19 -4 -35 -10 -35 -11 0 -14 53 -3 63 11 12 13 8 13 -28z m257 -12 c-3 -10
-5 -2 -5 17 0 19 2 27 5 18 2 -10 2 -26 0 -35z m-100 -5 c-3 -7 -5 -2 -5 12 0
14 2 19 5 13 2 -7 2 -19 0 -25z m133 1 c0 -5 -4 -9 -10 -9 -5 0 -10 7 -10 16
0 8 5 12 10 9 6 -3 10 -10 10 -16z m105 2 c-3 -6 -11 -11 -17 -11 -6 0 -6 6 2
15 14 17 26 13 15 -4z m-428 -13 c-3 -8 -6 -5 -6 6 -1 11 2 17 5 13 3 -3 4
-12 1 -19z m63 6 c0 -8 -4 -12 -10 -9 -5 3 -10 10 -10 16 0 5 5 9 10 9 6 0 10
-7 10 -16z m-180 -3 c0 -5 -10 -11 -22 -14 -22 -6 -22 -6 -4 8 23 17 26 18 26
6z m650 -11 c0 -6 -51 -9 -137 -8 l-138 2 100 6 c168 10 175 10 175 0z m-317
-7 c-18 -2 -48 -2 -65 0 -18 2 -4 4 32 4 36 0 50 -2 33 -4z m-222 -13 c20 0
27 -4 23 -14 -3 -8 0 -24 6 -36 11 -20 7 -19 -47 8 -32 16 -69 34 -83 41 -22
10 -19 11 24 6 27 -3 62 -5 77 -5z m245 -24 c-1 -21 -10 -27 -62 -41 -34 -9
-76 -15 -95 -13 -31 3 -34 6 -37 41 l-3 37 99 0 c99 0 100 0 98 -24z m114 -58
c32 -23 118 -120 91 -103 -11 6 -13 4 -8 -10 4 -9 -13 5 -38 33 -54 60 -96 77
-174 69 -32 -4 -63 -2 -71 4 -11 7 -5 9 20 4 24 -4 31 -3 21 4 -18 12 106 2
131 -10 23 -12 34 -11 21 2 -6 6 -38 15 -70 19 l-58 7 51 2 c38 1 59 -5 84
-21z m-210 -18 c13 -9 13 -10 0 -9 -8 1 -26 5 -40 9 l-25 8 25 1 c14 0 32 -4
40 -9z"/>
<path d="M2128 1983 c12 -10 29 -27 39 -38 10 -12 14 -14 8 -5 -16 27 -48 60
-58 60 -5 0 0 -8 11 -17z"/>
<path d="M2000 3221 c-15 -29 -12 -49 9 -60 15 -9 22 -6 35 14 25 37 19 54 -7
21 -29 -35 -48 -19 -23 19 9 14 12 25 7 25 -6 0 -15 -9 -21 -19z"/>
<path d="M888 3177 c-16 -10 -16 -13 0 -39 9 -15 20 -28 24 -28 12 0 10 14 -3
27 -7 7 -9 20 -5 29 6 16 10 15 31 -11 28 -34 33 -27 9 10 -18 27 -30 30 -56
12z"/>
<path d="M2087 3154 c-11 -14 -16 -28 -13 -32 4 -3 13 4 22 16 8 12 23 22 32
22 15 0 15 2 2 10 -21 13 -23 13 -43 -16z"/>
<path d="M812 3118 c-28 -28 3 -82 36 -62 9 6 18 17 20 25 3 11 2 12 -6 1 -5
-8 -18 -12 -28 -10 -24 4 -32 38 -9 38 14 0 15 -3 5 -15 -7 -8 -8 -15 -2 -15
5 0 15 6 21 14 16 19 -20 41 -37 24z"/>
<path d="M2202 3088 c-18 -18 -14 -53 8 -73 19 -17 22 -17 36 -3 17 17 11 39
-9 37 -9 0 -8 -2 1 -6 15 -6 6 -23 -13 -23 -18 0 -27 28 -15 51 13 23 37 24
62 2 10 -9 18 -12 18 -7 0 18 -24 34 -50 34 -14 0 -31 -5 -38 -12z"/>
<path d="M750 3056 c0 -8 5 -18 10 -21 20 -12 10 -26 -11 -15 -11 6 -25 9 -32
7 -7 -2 6 -12 27 -21 22 -9 41 -14 43 -12 5 5 -24 76 -31 76 -4 0 -6 -6 -6
-14z"/>
<path d="M2287 2992 c-21 -23 -21 -39 -1 -59 14 -14 17 -13 39 7 30 28 24 41
-5 15 -16 -15 -23 -16 -33 -6 -9 10 -7 16 11 31 12 10 22 21 22 24 0 12 -17 6
-33 -12z"/>
<path d="M667 2973 c-4 -3 -7 -13 -7 -22 0 -11 3 -10 15 5 15 18 15 18 9 -8
-8 -36 22 -51 43 -22 12 17 11 21 -8 37 -22 18 -41 22 -52 10z m48 -42 c-9
-16 -25 -3 -18 15 4 10 9 12 15 6 6 -6 7 -15 3 -21z"/>
<path d="M2390 2932 c0 -4 -13 -16 -30 -25 -16 -10 -30 -23 -30 -28 0 -6 18 2
40 18 39 28 50 43 30 43 -5 0 -10 -4 -10 -8z"/>
<path d="M607 2893 c-16 -16 9 -63 33 -63 13 0 40 30 40 43 0 7 -7 4 -15 -6
-9 -13 -20 -17 -35 -12 -22 7 -23 26 -2 33 8 2 10 -3 5 -14 -4 -12 -3 -15 5
-10 19 11 14 36 -6 36 -10 0 -22 -3 -25 -7z"/>
<path d="M2376 2845 c-15 -16 -12 -45 6 -45 5 0 6 -4 3 -10 -10 -16 3 -12 51
16 46 27 57 39 25 29 -10 -3 -24 1 -31 10 -16 19 -34 19 -54 0z m49 -5 c7 -12
-12 -40 -27 -40 -16 0 -21 32 -7 41 18 12 26 11 34 -1z"/>
<path d="M540 2821 c0 -5 7 -12 15 -15 13 -4 14 -10 5 -26 -9 -16 -15 -18 -30
-10 -11 6 -20 7 -20 2 0 -7 29 -24 83 -50 4 -2 7 1 7 6 0 6 -9 14 -20 17 -16
5 -18 10 -10 26 8 15 17 18 38 13 34 -9 28 -2 -25 25 -24 12 -43 17 -43 12z"/>
<path d="M2433 2754 c-16 -7 -17 -50 -3 -59 7 -4 9 2 4 19 -7 31 12 36 21 5 9
-27 30 -19 30 12 0 24 -24 34 -52 23z m45 -22 c6 -18 -15 -14 -22 4 -4 10 -1
14 6 12 6 -2 14 -10 16 -16z"/>
<path d="M489 2299 c-1 -8 0 -27 0 -44 2 -23 0 -27 -8 -15 -9 12 -11 9 -11
-12 0 -16 -5 -28 -11 -28 -7 0 -9 8 -4 23 16 52 18 70 6 63 -6 -4 -12 -19 -12
-34 -1 -17 -3 -21 -6 -9 -2 9 -9 17 -14 17 -12 0 -12 -27 1 -35 7 -4 6 -13 -1
-27 -11 -20 -9 -21 25 -15 33 5 36 4 36 -18 0 -18 -7 -25 -30 -30 -41 -9 -38
-25 4 -18 29 4 34 2 39 -18 10 -35 8 -51 -3 -44 -6 4 -8 11 -5 16 9 13 -9 11
-23 -3 -22 -22 -12 -88 13 -88 16 0 27 27 15 35 -13 8 -13 25 0 25 6 0 10 -7
10 -15 0 -8 4 -15 9 -15 5 0 12 -16 15 -36 4 -19 10 -42 13 -50 4 -10 0 -12
-11 -8 -17 7 -22 -11 -6 -21 6 -3 10 -15 10 -26 0 -21 16 -26 23 -6 4 8 6 6 6
-4 1 -9 -10 -21 -24 -27 -14 -6 -25 -16 -25 -22 0 -6 12 -4 30 5 17 9 35 13
40 10 18 -11 10 -35 -15 -47 -14 -6 -25 -15 -25 -20 0 -12 8 -10 36 8 23 16
26 16 39 -2 8 -10 15 -23 15 -28 0 -5 2 -7 5 -5 2 3 -2 22 -9 42 -7 20 -15 35
-18 31 -3 -3 -9 8 -13 25 -4 17 -10 29 -14 27 -8 -5 -26 36 -34 74 -3 14 -14
61 -26 105 -12 44 -19 85 -16 92 2 7 1 13 -3 13 -4 0 -9 37 -11 82 -2 73 -9
116 -12 77z m-2 -269 c0 -16 -4 -27 -9 -24 -10 6 -11 38 -1 47 9 10 10 10 10
-23z"/>
<path d="M2520 2305 c-2 -15 -7 -61 -15 -140 -7 -82 -24 -157 -38 -166 -5 -4
12 -13 37 -22 25 -9 48 -12 51 -7 3 5 -11 14 -30 20 -34 11 -35 13 -29 48 8
46 14 54 14 19 0 -30 24 -37 34 -11 9 23 7 34 -4 34 -5 0 -10 -10 -11 -22 -1
-17 -3 -15 -10 10 -6 19 -8 41 -6 50 3 10 5 4 6 -11 0 -16 5 -26 11 -22 5 3 6
13 3 22 -5 13 -1 15 20 11 16 -3 28 0 31 8 4 10 -4 14 -29 14 -30 0 -35 3 -34
23 0 12 4 31 9 42 7 17 9 17 9 3 1 -10 6 -18 11 -18 11 0 12 6 4 38 -5 17 -10
20 -19 12 -11 -9 -12 -7 -8 9 4 16 9 18 28 11 17 -6 27 -5 35 6 11 12 7 14
-23 14 -25 0 -37 5 -40 18 -3 9 -6 13 -7 7z"/>
<path d="M2561 2239 c0 -9 6 -22 14 -29 13 -10 15 -9 15 11 0 18 -3 20 -9 10
-7 -11 -10 -10 -14 5 -4 14 -5 15 -6 3z"/>
<path d="M511 1989 c-1 -9 -10 -19 -21 -22 -11 -3 -20 -10 -20 -17 0 -6 5 -8
13 -3 6 4 20 6 30 5 19 -4 20 3 7 33 -7 15 -9 16 -9 4z"/>
<path d="M2467 1973 c-4 -3 -7 -13 -7 -21 0 -27 -89 -204 -100 -197 -6 3 -24
-8 -41 -25 -23 -23 -30 -36 -25 -54 6 -24 -14 -52 -27 -39 -4 3 -7 1 -7 -5 0
-7 5 -12 10 -12 6 0 1 -9 -10 -20 -11 -11 -24 -20 -28 -20 -5 0 -19 -11 -31
-24 -12 -13 -30 -22 -39 -20 -27 7 -79 -31 -84 -61 -4 -19 -2 -25 8 -21 7 3
22 -7 33 -22 11 -15 23 -24 27 -19 4 4 -3 18 -15 31 l-22 24 31 22 c17 12 29
25 26 28 -3 3 -14 -2 -23 -10 -28 -23 -43 -30 -43 -19 0 17 48 44 66 37 15 -6
15 -9 -1 -33 l-17 -26 32 7 c18 3 41 6 51 6 16 0 15 3 -7 27 -23 25 -24 27 -7
46 16 17 18 18 21 2 3 -15 7 -14 28 6 20 19 24 20 24 5 0 -15 2 -15 31 -1 29
16 30 17 14 35 -10 11 -21 17 -26 15 -15 -10 -18 12 -4 31 13 18 14 18 39 -5
14 -14 29 -21 32 -18 4 4 -5 16 -20 28 -25 20 -26 22 -11 45 24 36 18 42 -10
9 -16 -20 -24 -25 -25 -14 0 8 11 26 25 39 14 13 25 18 25 11 0 -7 5 -9 12 -5
11 7 10 4 -9 -43 -6 -16 13 -17 23 -2 3 6 20 17 37 24 l30 12 -32 19 c-37 22
-35 39 5 39 26 0 29 3 26 27 -3 26 -1 27 30 23 18 -3 26 -2 18 1 -8 3 -20 13
-27 21 -17 21 -33 7 -33 -30 0 -22 -3 -28 -11 -20 -7 7 -4 25 12 60 20 47 23
49 45 39 13 -6 24 -17 24 -23 0 -7 5 -13 10 -13 14 0 13 33 -2 48 -7 7 -21 12
-31 12 -15 0 -18 5 -13 25 6 25 5 30 -7 18z m-59 -245 c-2 -6 -10 -14 -16 -16
-7 -2 -10 2 -6 12 7 18 28 22 22 4z m-99 -137 c23 -15 -2 -19 -29 -5 -22 12
-22 14 -5 14 11 0 26 -4 34 -9z m-110 -102 c-16 -10 -23 -4 -14 10 3 6 11 8
17 5 6 -4 5 -9 -3 -15z"/>
<path d="M667 1753 c-3 -5 -2 -15 4 -23 7 -13 9 -13 9 0 1 9 6 5 15 -10 15
-26 20 -59 8 -46 -8 7 -9 11 -12 39 -1 8 -4 8 -10 -2 -6 -9 -6 -22 1 -34 7
-15 5 -24 -11 -41 -29 -30 -27 -45 2 -17 13 12 31 19 39 16 13 -5 14 1 8 40
-7 45 -42 96 -53 78z"/>
<path d="M599 1729 c-3 -8 3 -36 13 -64 14 -39 17 -43 15 -19 -3 26 0 30 15
26 12 -3 19 1 20 12 0 9 1 22 2 29 1 6 -3 12 -9 12 -5 0 -16 4 -22 8 -8 5 -13
4 -13 -3 0 -6 7 -13 15 -16 8 -4 15 -13 15 -21 0 -13 -2 -13 -16 -2 -9 7 -19
22 -23 33 -6 14 -9 16 -12 5z"/>
<path d="M773 1548 c3 -14 14 -25 30 -29 34 -9 37 13 5 35 -30 22 -38 20 -35
-6z m32 -8 c3 -5 1 -10 -4 -10 -6 0 -11 5 -11 10 0 6 2 10 4 10 3 0 8 -4 11
-10z"/>
<path d="M746 1552 c-5 -9 2 -24 23 -46 17 -18 31 -38 31 -45 0 -8 9 -2 21 13
23 29 41 33 59 11 10 -12 10 -15 -3 -15 -9 0 -19 -9 -22 -20 -7 -23 10 -50 31
-50 22 0 16 21 -6 27 -16 4 -18 8 -9 19 16 19 33 18 79 -6 45 -23 53 -35 14
-20 -38 15 -46 12 -32 -11 7 -12 18 -31 25 -42 12 -21 12 -21 22 7 7 16 16 24
22 20 8 -4 7 -9 -2 -15 -17 -10 -5 -23 15 -16 10 4 13 13 9 23 -5 14 -3 15 16
4 16 -8 20 -17 16 -28 -4 -9 -9 -26 -12 -37 -4 -18 -3 -18 9 -3 7 9 18 24 23
33 8 13 15 14 35 6 14 -5 19 -10 12 -10 -15 -1 -11 -26 4 -26 5 0 15 -4 22 -8
11 -8 16 -2 13 16 -1 5 3 6 9 2 5 -3 10 -1 10 4 0 6 -7 11 -15 11 -20 0 -66
29 -83 52 -7 10 -19 18 -27 18 -8 0 -18 7 -23 16 -6 11 -12 13 -16 6 -4 -6 7
-18 24 -27 16 -8 30 -18 30 -21 0 -11 -160 80 -191 108 l-31 28 -19 -24 -19
-25 -24 22 c-13 12 -25 31 -28 42 -3 15 -5 17 -12 7z m234 -151 c0 -17 -18
-21 -24 -6 -3 9 0 15 9 15 8 0 15 -4 15 -9z"/>
<path d="M1975 1408 c-11 -6 -37 -11 -57 -9 -21 1 -46 -3 -57 -8 -23 -13 -35
-51 -16 -51 7 0 18 -13 24 -30 5 -16 15 -30 21 -30 6 0 4 12 -6 31 -21 42 -5
60 27 30 27 -25 71 -27 90 -5 10 13 10 17 0 24 -9 5 -10 10 -2 14 6 4 11 2 11
-3 0 -16 17 -13 24 4 3 10 -1 15 -14 15 -10 0 -25 -7 -34 -15 -18 -18 -27 -19
-23 -2 1 6 18 20 37 29 25 12 29 17 15 17 -11 0 -29 -5 -40 -11z m-36 -27 c9
-6 10 -11 2 -15 -19 -12 -3 -24 25 -18 19 3 25 1 20 -7 -10 -15 -38 -14 -62 4
-16 13 -17 16 -4 25 21 14 -5 13 -32 -1 -23 -12 -39 -2 -18 11 19 12 51 12 69
1z"/>
<path d="M1181 1319 c-15 -49 -6 -66 10 -20 9 26 16 32 33 27 11 -3 29 -6 40
-6 12 0 16 -5 12 -15 -3 -9 0 -15 10 -15 10 0 13 -7 8 -24 -3 -13 -1 -27 5
-30 7 -5 11 2 11 18 0 13 7 32 16 40 18 18 19 18 -66 37 -30 6 -58 16 -61 21
-3 5 -11 -10 -18 -33z"/>
<path d="M1745 1329 c-21 -5 -45 -7 -51 -5 -9 4 -11 -5 -7 -30 l6 -36 -47 5
c-25 2 -46 0 -46 -4 0 -13 37 -20 64 -13 16 4 32 1 41 -6 13 -10 15 -10 11 1
-2 8 -7 27 -11 43 l-6 29 45 -5 c35 -4 43 -2 39 8 -3 8 -1 14 5 14 6 0 13 -13
17 -30 7 -32 4 -46 -7 -42 -5 1 -8 -2 -8 -8 0 -13 27 -13 35 0 4 7 13 7 26 0
13 -7 19 -7 19 0 0 5 -7 10 -15 10 -16 0 -47 59 -39 72 6 10 -20 9 -71 -3z"/>
<path d="M237 1303 c-4 -6 32 -12 96 -16 217 -12 452 -84 665 -203 35 -20 61
-38 58 -42 -4 -3 -12 0 -18 6 -7 7 -16 12 -22 12 -5 0 -1 -7 10 -16 27 -22 12
-16 -105 44 -178 92 -390 150 -606 169 -53 4 -76 9 -55 11 57 6 228 -18 345
-48 117 -30 156 -33 58 -5 -101 30 -234 54 -334 61 l-96 7 -30 -49 -29 -49
103 -2 c131 -3 266 -26 413 -70 119 -36 311 -114 294 -120 -6 -2 -44 12 -86
31 -178 83 -385 132 -630 152 -85 7 -87 6 -115 -22 l-28 -28 25 -7 c14 -4 55
-7 93 -8 76 -1 238 -23 342 -47 162 -37 426 -137 497 -189 l23 -17 -25 7 c-21
6 -20 3 8 -14 37 -24 55 -28 26 -6 -10 8 -14 15 -9 15 6 0 16 -5 22 -11 13
-13 36 -3 28 12 -4 5 -2 9 4 9 18 0 22 -20 5 -27 -14 -5 -14 -8 7 -25 19 -14
20 -17 5 -11 -14 4 -17 3 -12 -6 4 -6 16 -9 26 -6 10 3 21 1 24 -4 14 -22 -43
-3 -110 36 -252 149 -637 249 -977 254 -80 1 -97 -3 -97 -26 0 -25 34 -34 148
-36 62 -1 112 -5 112 -8 0 -3 24 -7 53 -8 155 -7 559 -111 525 -135 -10 -7 -8
-8 4 -4 19 6 157 -49 205 -81 15 -10 41 -25 57 -33 16 -8 42 -27 57 -42 15
-16 33 -28 39 -28 6 0 8 -4 5 -10 -3 -5 0 -10 8 -10 18 0 49 -34 40 -44 -5 -4
-2 -6 5 -4 19 5 83 -103 89 -151 5 -35 3 -41 -13 -41 -11 0 -263 0 -561 0
-364 0 -543 -3 -543 -10 0 -7 188 -10 571 -10 l572 0 -5 44 c-16 141 -161 283
-411 401 -243 115 -594 195 -857 195 -66 0 -80 3 -80 16 0 16 61 15 270 -7
420 -45 856 -226 1011 -421 23 -29 46 -52 52 -50 5 2 7 -5 3 -14 -5 -14 -4
-15 9 -4 18 15 20 0 3 -20 -10 -11 -9 -11 6 0 18 14 18 13 11 -10 -9 -29 -3
-25 15 9 10 19 10 22 -1 16 -9 -6 -11 -3 -6 9 5 11 3 15 -5 10 -8 -5 -9 -2 -5
10 4 9 3 15 -2 12 -14 -9 -21 20 -8 33 6 6 7 11 2 11 -4 0 0 9 9 19 11 12 14
21 7 26 -6 3 -12 4 -12 1 -4 -16 -7 -26 -9 -31 -3 -5 -6 -19 -9 -32 -1 -5 -5
-1 -11 7 -6 9 -5 19 3 29 7 8 11 17 9 20 -2 3 5 12 16 19 17 11 21 9 36 -13
17 -25 14 -45 -5 -45 -6 0 -7 5 -3 12 5 7 3 8 -5 4 -7 -5 -10 -11 -7 -14 3 -3
0 -12 -6 -21 -10 -13 -10 -14 2 -3 20 17 35 15 20 -3 -11 -13 -10 -14 6 -8 17
6 18 5 4 -12 -15 -18 -14 -18 13 -1 15 10 27 14 27 8 0 -6 -10 -16 -21 -23
-15 -7 -18 -13 -10 -18 6 -4 9 -16 6 -27 -6 -18 -6 -18 5 -1 7 10 9 21 6 24
-3 4 -1 12 5 20 14 16 41 -1 33 -22 -3 -7 -1 -16 5 -20 7 -4 8 0 4 11 -5 13
-3 15 7 9 10 -6 12 -4 7 8 -3 10 -2 17 4 17 6 0 7 5 3 11 -5 8 -9 8 -14 -1 -8
-14 -30 -5 -30 11 0 6 5 7 12 3 6 -4 8 -3 5 4 -4 5 -4 17 -1 26 5 13 9 14 21
5 10 -9 11 -14 3 -19 -8 -5 -6 -9 5 -13 9 -4 13 -3 10 3 -6 9 -2 12 27 14 6 1
13 -10 15 -23 3 -21 1 -22 -14 -10 -15 11 -16 11 -5 -1 18 -21 15 -34 -5 -19
-15 11 -16 11 -5 -1 17 -20 15 -35 -3 -20 -9 8 -15 9 -15 2 0 -6 5 -14 10 -17
5 -3 10 -11 10 -17 0 -7 -4 -7 -13 0 -10 9 -10 0 2 -37 l16 -49 11 44 c48 184
280 358 631 473 189 62 386 98 646 116 71 5 87 3 87 -8 0 -11 -29 -15 -137
-20 -602 -28 -1179 -310 -1211 -593 l-5 -43 576 -1 c402 0 578 3 582 11 4 5 1
10 -6 8 -8 -1 -265 -1 -571 0 l-558 1 0 25 c0 14 7 42 15 62 21 50 86 133 98
126 6 -4 7 -1 3 6 -5 8 0 14 13 18 11 3 18 9 15 14 -3 5 2 9 10 9 8 0 21 8 28
19 22 31 227 148 242 138 1 -1 10 4 19 12 10 7 17 10 17 6 0 -4 10 -1 23 8 56
36 343 118 462 132 28 3 70 8 95 11 47 6 136 12 232 17 32 1 63 8 69 14 19 19
2 43 -30 43 -20 0 -35 8 -45 22 -9 12 -16 18 -16 12 0 -7 -48 -13 -127 -17
-266 -13 -535 -82 -754 -193 -39 -19 -74 -33 -77 -30 -9 10 179 94 303 135
139 46 333 87 455 96 177 12 190 15 179 33 -10 15 -23 16 -111 10 -113 -7
-271 -28 -265 -34 2 -3 57 2 121 11 64 8 147 14 184 14 53 -1 39 -4 -68 -14
-236 -22 -463 -75 -617 -145 -64 -29 -104 -40 -73 -20 13 9 13 10 0 10 -12 1
-11 3 3 11 9 6 25 8 35 5 9 -3 24 -1 32 5 11 8 9 9 -10 4 -57 -16 0 15 90 48
186 69 422 116 583 117 39 0 67 4 67 10 0 6 -10 27 -23 48 -12 20 -28 49 -34
64 l-12 27 -102 -4 c-56 -3 -107 -9 -113 -14 -6 -5 -31 -11 -56 -14 -25 -3
-56 -8 -70 -12 -14 -4 -41 -10 -60 -14 -19 -4 -45 -13 -56 -19 -12 -6 -24 -8
-28 -5 -3 3 -6 1 -6 -6 0 -6 -6 -11 -12 -10 -15 2 -36 -5 -94 -32 -23 -10 -46
-19 -53 -19 -6 0 -11 -4 -11 -8 0 -5 -6 -9 -13 -9 -18 0 -140 -72 -218 -130
-140 -102 -194 -154 -324 -316 -5 -6 -16 -24 -24 -39 l-14 -27 -53 77 c-29 42
-74 99 -99 126 -73 77 -261 226 -285 226 -5 0 -10 4 -10 9 0 5 -15 14 -32 22
-43 17 -79 44 -70 53 3 4 -1 4 -10 1 -10 -4 -42 6 -77 24 -58 29 -193 78 -231
84 -11 2 -23 6 -26 10 -4 4 -19 7 -34 7 -14 0 -51 7 -83 15 -73 19 -242 31
-250 18z m2458 -23 l-60 -7 65 -3 65 -3 -75 -9 c-248 -29 -381 -61 -537 -129
-51 -23 -97 -37 -104 -33 -8 4 -9 3 -5 -4 4 -6 -6 -18 -23 -27 -38 -19 -50
-19 -25 1 18 14 18 15 -3 4 -13 -6 -22 -16 -20 -22 1 -6 -4 -13 -12 -16 -9 -3
-11 0 -6 8 6 9 3 9 -14 1 -11 -7 -20 -17 -18 -23 1 -6 -3 -12 -10 -15 -6 -2
-10 4 -9 14 3 21 170 116 284 161 176 70 363 111 497 109 l70 0 -60 -7z
m-2174 -70 c139 -29 289 -80 409 -139 82 -41 105 -49 121 -41 14 8 25 7 41 -4
23 -16 34 -50 15 -43 -7 2 -12 9 -12 15 0 5 -4 14 -9 19 -5 5 -6 2 -1 -5 6
-12 3 -12 -15 -2 -12 6 -24 9 -27 7 -3 -3 9 -13 27 -22 18 -9 30 -19 27 -21
-3 -3 -23 6 -44 19 -185 117 -449 202 -721 232 l-127 14 108 -4 c60 -3 153
-14 208 -25z m2142 15 c-156 -17 -260 -38 -386 -79 -100 -33 -291 -115 -284
-123 2 -2 37 12 78 30 156 71 297 115 449 141 119 20 270 30 270 19 0 -6 -53
-13 -117 -16 -197 -10 -405 -64 -592 -152 -101 -49 -105 -50 -96 -35 9 15 -7
11 -30 -6 -19 -16 -19 -16 5 -10 23 6 23 6 -3 -9 -16 -9 -27 -18 -25 -20 1 -2
46 18 98 43 114 57 282 115 405 142 104 22 294 43 345 38 19 -2 -26 -9 -100
-16 -171 -16 -291 -41 -441 -92 -136 -45 -348 -148 -329 -160 9 -6 9 -9 1 -13
-7 -3 -7 -4 1 -2 7 1 12 8 10 15 -2 8 3 10 13 6 11 -4 14 -2 9 6 -5 8 -2 9 10
5 10 -4 15 -3 11 3 -3 5 3 14 14 19 26 14 32 14 29 -1 -3 -11 -120 -88 -134
-88 -9 0 2 26 16 37 10 8 11 12 3 13 -6 0 -14 -4 -17 -9 -3 -5 -17 -8 -31 -8
-13 0 -22 4 -19 9 3 5 14 6 24 3 10 -3 22 0 26 6 5 8 2 10 -8 7 -8 -4 -21 -2
-29 3 -8 5 -9 9 -4 10 6 0 20 2 32 3 12 1 20 -1 17 -6 -8 -13 9 -9 31 8 19 16
19 16 -5 10 -23 -6 -23 -6 3 9 16 9 26 19 23 23 -4 3 -12 0 -18 -6 -14 -14
-32 -16 -23 -2 3 5 0 7 -9 4 -10 -4 -14 0 -12 12 2 10 9 20 16 22 7 3 10 0 6
-6 -10 -17 12 -24 35 -11 18 9 19 13 8 21 -11 8 -10 9 4 4 11 -3 54 12 107 39
210 105 473 174 665 173 61 -1 54 -2 -52 -13z m-2193 -32 c178 -29 399 -105
544 -188 63 -36 82 -42 97 -34 11 5 17 14 14 20 -38 61 192 -140 267 -234 l31
-38 -24 -17 c-13 -9 -28 -16 -33 -14 -5 2 -4 -3 3 -12 8 -10 9 -16 1 -21 -7
-4 -3 -18 11 -41 28 -46 4 -41 -31 6 -15 19 -57 63 -95 98 -38 35 -62 60 -53
57 30 -12 28 13 -2 35 -23 16 -28 25 -20 35 7 9 6 16 -4 25 -17 14 -40 4 -29
-13 3 -6 -9 -2 -28 10 -248 148 -507 228 -833 258 -111 10 -126 13 -71 14 120
1 353 -36 494 -80 35 -10 66 -17 68 -15 6 6 -129 45 -230 66 -80 16 -177 29
-332 44 -22 2 13 2 78 0 184 -6 410 -59 600 -140 45 -20 88 -38 96 -41 10 -4
12 -2 6 6 -6 10 -1 12 16 7 41 -11 -111 66 -201 101 -165 65 -375 110 -532
114 -43 1 -78 6 -78 11 0 12 141 2 270 -19z m2320 -114 c-324 -26 -580 -89
-800 -198 -216 -106 -348 -225 -401 -360 -10 -25 -18 -39 -18 -31 0 8 8 34 18
57 16 34 20 68 11 81 -2 1 -4 7 -5 12 -1 6 -3 11 -5 13 -7 9 -6 37 2 35 5 -2
8 -6 6 -9 -2 -3 2 -12 8 -20 6 -8 10 -25 9 -38 -2 -22 -1 -23 11 -6 7 10 11
22 7 28 -4 6 -1 7 8 2 11 -7 11 -5 -1 10 -8 10 -16 26 -16 37 -1 10 -2 20 -3
23 0 3 -1 8 -2 13 0 4 -6 13 -12 20 -8 10 6 30 59 83 95 97 224 200 199 159
-3 -6 1 -13 9 -16 22 -8 9 -26 -13 -19 -10 3 -24 -1 -31 -10 -7 -8 -9 -15 -5
-15 4 0 2 -7 -5 -15 -7 -8 -9 -16 -4 -17 5 0 14 -2 19 -3 6 -2 16 -3 22 -4 7
0 12 -6 10 -13 -5 -26 61 -13 149 29 226 107 551 180 794 180 l85 0 -105 -8z
m-1191 -355 c-10 -12 -10 -14 0 -12 8 2 15 -5 16 -15 3 -14 1 -16 -10 -7 -26
21 -42 -6 -22 -36 11 -18 -25 -27 -41 -10 -14 14 -8 41 8 31 4 -3 7 3 6 13 0
9 5 16 12 14 8 -1 11 2 7 8 -8 14 14 42 27 34 5 -3 4 -12 -3 -20z m-124 -112
c-8 -9 -25 20 -18 31 3 5 10 2 15 -7 6 -10 7 -20 3 -24z"/>
<path d="M2470 1250 c-98 -20 -203 -50 -198 -55 2 -3 45 7 94 21 50 13 131 31
180 38 54 9 73 14 49 14 -22 0 -78 -8 -125 -18z"/>
<path d="M2215 1175 c-25 -12 -26 -14 -5 -9 28 7 60 23 45 23 -5 0 -23 -6 -40
-14z"/>
<path d="M2140 1145 c-14 -8 -20 -14 -15 -14 6 0 21 6 35 14 14 8 21 14 15 14
-5 0 -21 -6 -35 -14z"/>
<path d="M800 1032 c8 -5 26 -13 40 -16 17 -5 20 -4 10 2 -8 5 -26 13 -40 16
-17 5 -20 4 -10 -2z"/>
<path d="M890 995 c14 -8 30 -14 35 -14 6 0 -1 6 -15 14 -14 8 -29 14 -35 14
-5 0 1 -6 15 -14z"/>
<path d="M940 978 c12 -13 91 -48 85 -37 -5 7 -3 10 6 7 8 -3 13 -10 12 -16
-2 -7 4 -9 14 -5 11 4 14 2 9 -5 -8 -13 23 -31 43 -24 8 3 11 0 7 -6 -3 -6 -1
-14 5 -18 7 -4 9 -3 5 4 -9 15 32 10 62 -7 23 -12 23 -13 5 -27 -17 -13 -17
-14 1 -7 12 4 17 3 13 -4 -7 -12 18 -38 37 -38 16 0 18 -20 2 -20 -30 0 -23
-13 47 -80 39 -39 69 -66 65 -61 -5 5 -2 16 5 24 8 10 8 13 1 9 -7 -4 -14 0
-18 8 -6 16 9 29 23 20 10 -6 24 11 27 32 3 17 -13 26 -21 13 -3 -5 -11 -10
-17 -10 -7 0 -7 4 1 14 9 10 8 16 -4 26 -8 7 -13 16 -10 20 4 7 -43 57 -51 53
-2 -2 -4 0 -5 5 -1 10 -30 41 -38 40 -13 -2 -41 14 -36 22 2 4 -5 16 -17 26
-12 11 -18 13 -13 5 5 -9 3 -12 -6 -9 -8 3 -13 10 -12 16 1 5 -5 16 -14 24
-14 11 -16 11 -8 -1 6 -11 4 -13 -9 -8 -10 4 -15 3 -11 -3 8 -13 -54 -5 -68 9
-13 13 -31 15 -23 2 7 -11 -49 -7 -79 4 -11 5 -18 6 -15 3z m136 -33 c23 -17
38 -19 28 -3 -4 7 -3 8 4 4 6 -4 21 -2 33 5 12 6 19 7 15 1 -7 -12 17 -34 35
-30 8 2 13 -2 12 -9 -3 -13 20 -34 39 -37 21 -3 39 -17 33 -26 -3 -4 2 -13 10
-20 8 -7 15 -9 15 -5 0 5 9 0 20 -10 11 -10 17 -21 15 -25 -3 -4 2 -13 10 -20
11 -9 12 -16 5 -25 -15 -18 6 -31 25 -15 11 9 13 7 10 -7 -1 -10 -8 -17 -15
-15 -24 5 -40 -18 -29 -42 6 -13 -1 -8 -20 12 -16 19 -44 47 -63 63 -18 16
-26 26 -17 23 24 -8 43 20 25 36 -9 6 -19 9 -24 6 -13 -8 -30 15 -27 36 2 10
-11 28 -30 43 -37 27 -50 32 -38 13 4 -7 -5 -5 -20 5 -30 19 -41 22 -32 7 3
-6 -1 -7 -10 -3 -12 4 -13 8 -4 13 8 6 3 13 -17 24 -16 8 -24 15 -18 16 5 0
19 -7 30 -15z"/>
<path d="M1120 929 c-13 -7 -13 -9 0 -10 8 -1 19 -1 23 0 5 1 26 -12 47 -29
26 -21 38 -37 35 -50 -2 -11 0 -22 4 -24 4 -3 7 7 7 21 0 17 -12 35 -40 57
-55 44 -60 46 -76 35z"/>
<path d="M1254 845 c1 -13 10 -32 19 -43 16 -17 16 -20 2 -32 -14 -12 -12 -17
16 -46 25 -26 36 -31 46 -22 9 8 10 14 3 23 -8 9 -8 15 0 20 8 5 7 12 -4 24
-9 10 -14 20 -11 23 3 3 -1 11 -10 18 -8 7 -15 9 -15 5 0 -5 -9 0 -20 10 -11
10 -17 21 -15 26 3 4 1 10 -3 13 -5 3 -8 -6 -8 -19z m52 -47 c2 1 4 -1 5 -5 0
-5 7 -15 15 -25 11 -11 12 -18 4 -23 -8 -5 -8 -10 0 -20 22 -27 -8 -23 -34 4
-24 25 -25 29 -11 41 14 12 13 16 -7 39 l-23 26 24 -20 c13 -11 25 -19 27 -17z"/>
<path d="M1291 767 c-8 -11 -5 -19 17 -38 15 -13 21 -17 15 -10 -8 10 -9 18
-3 26 7 9 6 16 -4 24 -10 8 -16 8 -25 -2z m23 -18 c-3 -5 -10 -7 -15 -3 -5 3
-7 10 -3 15 3 5 10 7 15 3 5 -3 7 -10 3 -15z"/>
<path d="M1787 932 c-10 -10 -14 -21 -11 -25 3 -3 -4 -10 -15 -17 -12 -6 -21
-8 -21 -4 0 4 -9 -1 -20 -11 -10 -9 -18 -20 -17 -24 1 -3 -2 -7 -8 -9 -18 -6
-55 -45 -50 -53 3 -4 1 -10 -4 -13 -10 -6 -10 -24 0 -41 3 -5 5 -22 4 -37 -1
-16 2 -25 8 -21 7 4 8 -1 3 -12 -4 -10 17 5 46 34 29 29 88 76 130 104 42 28
75 53 72 56 -2 3 -10 -1 -16 -7 -14 -14 -32 -16 -24 -3 3 5 -1 12 -10 15 -8 3
-12 11 -8 17 4 8 3 9 -4 5 -7 -4 -21 -1 -33 7 -20 14 -20 16 -2 26 10 6 13 11
5 11 -7 0 -10 5 -7 10 10 16 -1 11 -18 -8z m27 -63 c-3 -6 2 -9 12 -7 11 2 18
-2 17 -9 -2 -7 2 -13 9 -13 6 0 -9 -14 -33 -32 -24 -17 -70 -53 -101 -81 -32
-27 -59 -46 -59 -43 -1 3 -3 15 -4 26 -1 11 -4 22 -5 25 -7 13 -5 31 3 43 5 6
6 12 2 12 -5 0 0 9 10 20 10 11 21 17 25 15 4 -3 13 2 20 10 7 8 9 15 5 15 -4
0 -2 7 5 15 7 8 16 13 20 10 4 -2 16 2 26 9 21 16 60 3 48 -15z"/>
<path d="M1769 874 c-6 -8 -17 -13 -23 -12 -6 2 -13 -1 -15 -7 -5 -17 -33 -45
-41 -40 -8 5 -37 -25 -32 -32 1 -1 2 -4 1 -5 -6 -21 -6 -39 1 -43 5 -3 7 -15
5 -26 -3 -15 8 -9 48 27 29 26 69 58 90 72 33 22 35 26 20 37 -9 7 -24 11 -33
8 -11 -3 -11 -1 3 10 15 12 15 16 3 20 -8 3 -20 -1 -27 -9z m11 -9 c-12 -14
-10 -16 15 -19 25 -3 11 -22 -56 -78 -39 -33 -69 -56 -65 -50 3 6 2 13 -3 16
-8 5 -8 34 -1 44 2 1 3 7 4 12 0 6 4 9 8 8 10 -5 58 44 52 53 -3 5 1 6 9 3 8
-3 20 2 27 11 7 8 15 15 17 15 3 0 0 -7 -7 -15z"/>
<path d="M1759 847 c-1 -4 -2 -12 -3 -19 0 -6 -7 -13 -15 -16 -9 -3 -11 0 -6
9 5 8 -3 4 -17 -9 -13 -12 -28 -19 -32 -15 -4 5 -7 4 -6 -2 1 -5 1 -12 0 -15
-7 -18 -7 -41 -1 -45 8 -4 56 41 56 53 0 4 5 7 10 7 18 1 33 15 31 30 -2 16
-15 32 -17 22z m-38 -50 c-6 -8 -9 -16 -6 -19 3 -3 -4 -13 -14 -22 -16 -15
-19 -15 -17 -2 1 8 10 24 21 36 20 22 34 28 16 7z"/>
<path d="M1220 1302 c0 -12 23 -32 37 -32 23 0 14 20 -9 21 -22 1 -22 1 2 9
l25 8 -27 1 c-16 1 -28 -3 -28 -7z"/>
<path d="M1615 1298 c-19 -11 -18 -12 10 -19 30 -8 60 5 49 22 -7 12 -35 11
-59 -3z m45 -2 c0 -3 -4 -8 -10 -11 -5 -3 -10 -1 -10 4 0 6 5 11 10 11 6 0 10
-2 10 -4z"/>
<path d="M1411 1294 c-1 -6 10 -23 24 -38 35 -37 79 -33 82 7 2 35 -21 46 -57
25 -24 -14 -28 -14 -38 1 -6 9 -11 11 -11 5z m89 -14 c0 -5 -6 -10 -12 -11 -7
0 -4 -4 7 -9 18 -7 18 -9 3 -15 -9 -3 -26 -1 -38 5 l-22 12 23 13 c30 16 39
18 39 5z"/>
<path d="M1745 1290 c-4 -6 7 -10 27 -9 27 0 30 2 13 9 -27 12 -33 12 -40 0z"/>
<path d="M740 1182 c8 -5 26 -13 40 -16 17 -5 20 -4 10 2 -8 5 -26 13 -40 16
-17 5 -20 4 -10 -2z"/>
<path d="M830 1145 c14 -8 30 -14 35 -14 6 0 -1 6 -15 14 -14 8 -29 14 -35 14
-5 0 1 -6 15 -14z"/>
<path d="M881 1126 c10 -9 69 -36 69 -32 0 6 -55 36 -66 36 -4 0 -5 -2 -3 -4z"/>
<path d="M100 1100 c0 -6 32 -10 73 -10 233 0 574 -78 796 -181 46 -22 86 -37
89 -35 13 14 -247 117 -388 155 -151 40 -270 59 -405 66 -60 3 -122 8 -137 10
-16 3 -28 0 -28 -5z"/>
<path d="M2375 1096 c-86 -22 -167 -48 -162 -52 2 -2 41 7 88 20 46 13 102 28
124 34 22 5 31 10 20 10 -11 0 -42 -5 -70 -12z"/>
<path d="M987 1069 c7 -7 15 -10 18 -7 3 3 -2 9 -12 12 -14 6 -15 5 -6 -5z"/>
<path d="M2140 1020 c-25 -10 -38 -19 -30 -19 17 1 101 37 85 38 -5 0 -30 -9
-55 -19z"/>
<path d="M1135 820 c3 -5 11 -10 16 -10 6 0 7 5 4 10 -3 6 -11 10 -16 10 -6 0
-7 -4 -4 -10z"/>
<path d="M1430 509 c-6 -11 -10 -28 -8 -37 2 -10 8 -1 15 21 12 41 10 48 -7
16z"/>
<path d="M1446 493 c-2 -10 -8 -29 -11 -43 -5 -17 -4 -22 3 -15 11 11 27 75
18 75 -2 0 -7 -8 -10 -17z"/>
<path d="M1500 500 c-13 -8 -12 -10 3 -10 9 0 17 5 17 10 0 12 -1 12 -20 0z"/>
<path d="M1530 489 c0 -15 7 -33 16 -40 15 -12 16 -11 9 11 -14 46 -24 58 -25
29z"/>
<path d="M1485 460 c-19 -8 -19 -9 3 -9 12 -1 22 4 22 9 0 6 -1 10 -2 9 -2 0
-12 -4 -23 -9z"/>
<path d="M1443 416 c-18 -8 -33 -16 -33 -18 0 -2 37 -2 81 0 54 2 78 7 71 14
-17 17 -85 19 -119 4z"/>
<path d="M234 397 c-2 -7 -3 -89 -2 -182 l3 -170 5 183 c3 100 4 182 2 182 -1
0 -5 -6 -8 -13z"/>
<path d="M2762 225 l-2 -180 -1252 3 c-831 1 -1255 -1 -1262 -8 -7 -7 404 -10
1252 -10 1019 0 1264 2 1268 13 2 7 3 91 1 187 l-3 175 -2 -180z"/>
<path d="M260 225 l0 -155 1240 0 1240 0 0 155 0 155 -1240 0 -1240 0 0 -155z
m351 131 c-8 -9 -11 -53 -9 -131 3 -99 6 -120 20 -129 30 -19 53 4 56 58 l3
46 40 0 c52 0 96 -19 144 -63 45 -41 73 -51 107 -38 20 9 19 10 -15 10 -30 1
-51 11 -99 50 -57 46 -65 50 -124 53 l-64 3 0 -52 c0 -52 0 -53 -30 -53 l-30
0 0 121 0 122 144 -5 c114 -3 149 -8 170 -21 51 -34 26 -89 -47 -102 l-39 -8
40 -17 c22 -10 42 -23 46 -28 4 -6 21 -21 39 -32 23 -15 18 -9 -15 22 -49 45
-57 58 -36 58 21 0 48 33 48 58 0 31 -36 72 -64 73 -12 0 -30 4 -41 9 -12 5
41 9 139 9 133 1 157 -1 142 -12 -12 -9 -16 -22 -13 -42 l4 -30 2 33 c1 29 4
32 34 32 24 0 28 3 17 10 -10 7 29 10 120 10 126 0 133 -1 112 -16 -21 -14
-23 -23 -21 -91 1 -57 -2 -78 -14 -90 -21 -21 -114 -28 -147 -11 -23 12 -25
21 -31 98 l-5 85 -2 -86 c-2 -105 3 -112 99 -117 62 -4 70 -2 93 21 24 24 26
34 26 107 0 44 3 79 8 79 4 -1 18 -1 32 0 20 1 22 3 10 11 -10 7 20 10 93 10
70 0 106 -4 102 -10 -4 -6 47 -10 145 -10 98 0 149 4 145 10 -4 6 25 10 81 10
68 0 84 -3 76 -13 -8 -9 24 -11 159 -9 104 2 167 7 164 12 -4 6 52 10 147 10
l153 0 0 -145 0 -145 -1222 0 -1223 0 0 145 0 145 171 0 c145 0 170 -2 160
-14z"/>
<path d="M1473 270 c0 -41 2 -58 4 -37 2 20 2 54 0 75 -2 20 -4 3 -4 -38z"/>
<path d="M1632 223 c-2 -96 0 -113 15 -121 15 -9 312 -5 322 4 2 2 -71 4 -162
4 l-166 0 -4 113 -3 112 -2 -112z"/>
<path d="M670 280 l0 -41 96 5 c99 4 133 18 121 49 -7 18 -52 27 -143 27 l-74
0 0 -40z m170 20 c8 0 22 -5 30 -10 28 -19 -10 -30 -102 -30 -85 0 -88 1 -88
23 0 23 9 24 160 17z"/>
<path d="M1700 283 l0 -33 119 0 c98 0 120 -3 124 -15 4 -11 4 -10 3 2 -1 16
-15 18 -114 21 -104 2 -112 4 -112 22 0 19 7 20 115 20 63 0 115 3 115 8 0 4
-56 7 -125 7 l-125 0 0 -32z"/>
<path d="M2110 310 c-11 -7 4 -10 50 -10 l65 0 -3 -91 c-2 -63 0 -89 7 -84 7
3 11 44 11 98 l0 93 -57 2 c-32 1 -65 -3 -73 -8z"/>
<path d="M2300 213 l0 -102 -32 -3 c-28 -3 -30 -5 -14 -13 39 -18 51 5 54 109
l3 96 66 0 c36 0 63 3 60 7 -4 3 -36 7 -72 7 l-65 1 0 -102z"/>
<path d="M1122 200 c0 -19 2 -27 5 -17 2 9 2 25 0 35 -3 9 -5 1 -5 -18z"/>
<path d="M1700 180 l0 -40 138 2 137 2 -119 3 c-122 4 -153 13 -137 40 7 13
29 15 116 14 73 -2 105 1 100 8 -4 7 -51 11 -121 11 l-114 0 0 -40z"/>
<path d="M1455 167 c-19 -42 -70 -59 -172 -55 -77 3 -98 8 -125 27 l-33 24 25
-27 c34 -34 70 -44 162 -42 82 3 141 28 153 67 9 28 1 33 -10 6z"/>
</g>
</svg>
